<svg id="svg" version="1.1" viewBox="0 0 300 300" width="300" height="300" xmlns="http://www.w3.org/2000/svg"><svg xmlns="http://www.w3.org/2000/svg"><defs><clipPath id="clip-1"><rect x="0" y="0" transform="scale(0.14648,0.14648)" width="2048" height="2048" fill="none"/></clipPath></defs><g clip-path="url(#clip-1)" fill="none" fill-rule="nonzero" stroke="none" stroke-width="1" stroke-linecap="butt" stroke-linejoin="miter" stroke-miterlimit="10" stroke-dasharray="" stroke-dashoffset="0" font-family="none" font-weight="none" font-size="none" text-anchor="none" style="mix-blend-mode: normal"><path d="M0,0h26.152h247.58335h26.26465v25.97578v247.75225v26.27197h-25.95703h-248.06821h-25.97476v-26.13428v-247.59595z" fill="none"/><path d="M300,273.72803v26.27197h-25.95703c0.68555,-0.31494 2.48584,-0.68701 3.30176,-0.89209c2.10352,-0.52588 3.70752,-1.07227 5.6499,-2.04639c7.08398,-3.59033 12.55225,-9.7207 15.31348,-17.16797c0.74561,-2.0376 0.97559,-4.05762 1.63623,-6.00732z" fill="none"/><path d="M0,273.86572c0.75391,1.80615 0.98648,4.2085 1.75472,6.22852c2.86541,7.53662 8.78856,14.11963 16.16793,17.41553c1.19971,0.52295 2.43516,0.96094 3.69697,1.30957c0.89941,0.24756 3.86074,0.89355 4.35513,1.18066h-25.97476z" fill="none"/><path d="M0,0h26.152c-1.1168,0.4339 -2.48115,0.6226 -3.65845,0.91571c-8.84322,2.20173 -15.98377,8.63313 -19.85663,16.85504c-0.69286,1.49458 -1.24197,3.05156 -1.63991,4.65c-0.21205,0.83203 -0.66939,3.2543 -0.99701,3.84902z" fill="none"/><path d="M273.73535,0h26.26465v25.97578c-0.37646,-0.77637 -0.77783,-2.75581 -1.03711,-3.70107c-0.5376,-2.03745 -1.29785,-4.00898 -2.27051,-5.87813c-3.98291,-7.65337 -11.35986,-13.79295 -19.86035,-15.67476c-1.04736,-0.23183 -2.07568,-0.37411 -3.09668,-0.72182z" fill="none"/><path d="M168.50684,101.61899l0.00439,-14.8415c-0.00293,-3.93765 -0.31494,-9.58521 0.64014,-13.2457c0.84229,-3.1478 2.50049,-6.01714 4.80762,-8.31753c2.56494,-2.52847 5.82422,-4.23677 9.36182,-4.90737c2.68652,-0.4979 7.37695,-0.35815 10.24805,-0.3561l14.96631,0.00894l52.06055,-0.00044c8.98242,0.07866 16.43701,6.17725 17.90625,15.22266c0.37646,2.31504 0.25049,4.87485 0.25049,7.23618l-0.00146,8.97056l-0.00586,31.84292v65.55601c0.00146,10.8457 0.01758,21.70752 0,32.55469c-0.00732,5.09033 -1.94824,9.82471 -5.65283,13.37402c-2.521,2.44775 -5.7085,4.0957 -9.1626,4.74023c-2.65137,0.48633 -7.50146,0.3252 -10.39307,0.3252l-16.53955,-0.00439l-33.20947,-0.00293c-5.71436,0.00293 -11.47119,-0.00879 -17.146,-0.00439c-8.15771,0.00732 -15.46143,-5.81689 -17.49902,-13.65527c-0.95947,-3.69434 -0.65039,-8.92969 -0.64893,-12.87012l0.00879,-13.98047v-16.22021l-0.00439,-10.10449l-0.00732,-17.27783c-8.52539,0.65625 -14.58545,4.08398 -20.2002,10.39746c-4.35425,-6.18896 -6.7333,-10.33008 -12.31831,-15.65771l0.52427,-0.84521c-4.20498,-3.76934 -8.75522,-6.63955 -14.29175,-7.94971c5.75962,-7.78945 9.43184,-16.69014 15.78765,-24.0082c0.55942,-0.64409 1.38926,-1.49136 1.81611,-2.18525c0.2877,-0.09888 3.88784,-3.50991 4.48623,-4.02275c2.82246,-2.4189 5.75068,-4.12808 8.97334,-5.93774c5.68652,-2.15684 8.66455,-3.73916 15.23877,-3.8335z" fill="#fefefe"/><path d="M168.50684,101.61899l-0.00879,16.68237c-4.21875,0.52529 -6.68701,1.46133 -10.42236,3.57803c-4.45898,2.86875 -9.271,7.21597 -12.05259,11.79478c-3.43096,5.2623 -6.22148,10.7644 -9.52661,15.88198c-4.20498,-3.76934 -8.75522,-6.63955 -14.29175,-7.94971c5.75962,-7.78945 9.43184,-16.69014 15.78765,-24.0082c0.55942,-0.64409 1.38926,-1.49136 1.81611,-2.18525c0.2877,-0.09888 3.88784,-3.50991 4.48623,-4.02275c2.82246,-2.4189 5.75068,-4.12808 8.97334,-5.93774c5.68652,-2.15684 8.66455,-3.73916 15.23877,-3.8335z" fill="#01a34f"/><path d="M146.0231,133.67417c4.25669,7.38794 9.06431,12.63237 17.64536,14.90933c1.57471,0.43066 3.19482,0.6709 4.82666,0.71191l-0.00439,6.36621c-8.52539,0.65625 -14.58545,4.08398 -20.2002,10.39746c-4.35425,-6.18896 -6.7333,-10.33008 -12.31831,-15.65771l0.52427,-0.84521c3.30513,-5.11758 6.09565,-10.61968 9.52661,-15.88198z" fill="#010d1f"/><path d="M158.07568,121.87939c3.73535,-2.1167 6.20361,-3.05273 10.42236,-3.57803l-0.00732,14.63965l0.00439,16.35439c-1.63184,-0.04102 -3.25195,-0.28125 -4.82666,-0.71191c-8.58105,-2.27695 -13.38867,-7.52139 -17.64536,-14.90933c2.78159,-4.57881 7.5936,-8.92603 12.05259,-11.79478z" fill="#c40019"/><path d="M158.07568,121.87939c3.73535,-2.1167 6.20361,-3.05273 10.42236,-3.57803l-0.00732,14.63965c-5.90479,-1.36216 -8.40088,-5.82612 -10.41504,-11.06162z" fill="#010d1f"/><path d="M192.02637,103.16865c3.00879,-0.16523 7.45459,-0.03296 10.59961,-0.03252l20.2251,-0.00146l20.3877,-0.00542c3.57715,-0.00015 7.22021,-0.03838 10.79736,0.04644c1.17334,0.02798 1.94824,0.13154 2.9751,0.69785c1.76514,0.98247 3.04541,2.65313 3.5332,4.61411c1.0415,4.08853 -1.73584,7.67388 -5.76709,8.53931c-4.1499,0.13667 -8.95898,0.02944 -13.16748,0.02988l-24.67822,-0.00044l-15.86426,0.00337c-2.85352,0.00088 -5.69238,0.02959 -8.54443,-0.06768c-3.28418,-0.11191 -5.74072,-2.45127 -6.31494,-5.66514c-0.32812,-1.88071 0.10254,-3.81489 1.19678,-5.37891c1.17627,-1.6689 2.6792,-2.4189 4.62158,-2.77939z" fill="#010d1f"/><path d="M191.56934,166.28613c2.11084,-0.18164 6.01025,-0.07471 8.23828,-0.07617l15.80566,-0.00586l24.94775,0.00293c2.56348,0.00146 14.33203,-0.26367 15.91992,0.45996c1.78418,0.82031 3.16553,2.32178 3.83496,4.16748c0.6416,1.78271 0.5127,3.75293 -0.35449,5.4375c-1.01221,2.02002 -2.54443,2.97217 -4.59814,3.64014c-1.30078,0.2168 -5.3833,0.12451 -6.9624,0.12598l-13.86035,0.00146l-27.49512,-0.00146c-4.59961,0 -9.22559,0.01758 -13.82373,-0.01318c-1.04297,-0.00732 -2.3584,-0.11719 -3.27832,-0.60059c-1.74756,-0.90088 -3.04687,-2.48291 -3.59033,-4.37256c-1.15869,-4.0752 1.26416,-7.58936 5.21631,-8.76562z" fill="#010d1f"/><path d="M191.729,197.77881c3.24463,-0.18164 7.7168,-0.05859 11.07275,-0.06006l20.56641,-0.00293l20.06396,0.00146c3.50684,0 7.07666,-0.03369 10.5835,0.04541c1.10449,0.0249 2.0625,0.17285 3.04248,0.70313c1.6626,0.91113 2.89014,2.45361 3.40283,4.28027c1.19092,4.07813 -1.38281,7.63477 -5.32617,8.71143c-1.60693,0.19043 -6.12891,0.0835 -7.9585,0.08496l-15.44971,0.00293l-25.35937,-0.00146c-4.42236,-0.00146 -8.88721,0.02344 -13.31104,-0.03516c-1.13818,-0.01465 -2.15771,-0.12012 -3.17578,-0.63721c-1.65234,-0.83057 -2.89453,-2.2998 -3.43945,-4.06787c-1.34912,-4.29639 1.08545,-7.89551 5.28809,-9.0249z" fill="#010d1f"/><path d="M191.90479,134.79331c3.09375,-0.16377 7.40039,-0.03062 10.55859,-0.03018l20.10059,-0.00161l20.58398,-0.00205c3.5874,0.00029 7.22314,-0.03486 10.80762,0.04424c1.20264,0.02651 2.09619,0.13711 3.14209,0.73433c1.74902,1.00562 3.00732,2.68594 3.48047,4.64692c0.94482,3.97002 -1.77832,7.45957 -5.65869,8.33262c-3.92432,0.1582 -8.39355,0.0498 -12.375,0.0498l-22.11475,0.00293h-18.19482c-2.74805,0 -10.45752,0.41162 -12.60645,-0.78809c-1.63477,-0.90527 -2.82275,-2.44526 -3.28271,-4.2564c-1.09424,-4.20293 1.34619,-7.88599 5.55908,-8.73252z" fill="#010d1f"/><path d="M168.49072,155.66162l0.00732,17.27783l0.00439,10.10449v16.22021c-6.09961,-0.04687 -11.35547,-2.17676 -16.51025,-5.25l-3.22705,10.20557c-2.42959,7.63623 -4.40347,13.77832 -10.27148,19.7124c-4.5082,4.6084 -10.477,7.50586 -16.88584,8.2002c-2.58706,0.2666 -5.24648,0.19922 -7.85068,0.19775l-10.21113,0.01025c-0.02227,3.55078 -0.02256,7.10156 -0.00073,10.65234c0.0041,2.52686 0.16743,6.01758 -0.41924,8.37744c-0.47373,1.93213 -1.42236,3.71484 -2.75977,5.18701c-2.12783,2.35107 -5.26055,3.75879 -8.40146,3.77783c-4.03857,0.0249 -8.11714,0.00879 -12.15586,0.01025l-24.57993,-0.00439l-12.28813,0.00732c-0.88887,0.00146 -2.43779,-0.07178 -3.26499,0.00879c-6.77168,0.65918 -12.87759,-2.28662 -14.51484,-9.29004c-0.19702,-0.84229 -0.25049,-1.91309 -0.25737,-2.8418c-0.02769,-3.71924 -0.01714,-7.4458 -0.01611,-11.16797l-0.00322,-20.32471l-0.00029,-10.06494c0.0019,-4.93213 -0.42568,-9.00586 3.28242,-12.82471c2.41055,-2.48291 5.41245,-3.61377 8.84707,-3.60937c12.72642,0.01172 25.4502,0.00146 38.17529,0.00146l11.39883,0.00293c5.06147,0.00439 9.45762,-0.58887 13.37314,3.31787c4.05527,4.0459 3.58608,8.20898 3.57568,13.48975l-0.00278,8.89893l9.854,0.01611c2.06074,0.00146 4.23706,0.07178 6.27188,-0.14941c4.47407,-0.50391 8.52319,-3.63135 10.7332,-7.48242c2.01357,-3.5083 3.12144,-7.97314 4.35967,-11.8623c1.52783,-4.875 3.1062,-9.73389 4.73496,-14.5752c0.57891,-1.25977 1.19795,-3.0542 1.79824,-4.42969c1.98926,-4.56006 3.93867,-7.55273 7.00488,-11.40234c5.61475,-6.31348 11.6748,-9.74121 20.2002,-10.39746z" fill="#0150ed"/><path d="M158.73633,179.14014c2.89746,2.1167 6.17871,3.52441 9.76611,3.90381v16.22021c-6.09961,-0.04687 -11.35547,-2.17676 -16.51025,-5.25c2.00098,-5.96045 2.92383,-9.71631 6.74414,-14.87402z" fill="#01a34f"/><path d="M158.73633,179.14014c2.71289,-3.43066 5.48145,-5.38916 9.76172,-6.20068l0.00439,10.10449c-3.5874,-0.37939 -6.86865,-1.78711 -9.76611,-3.90381z" fill="#010d1f"/><path d="M68.18672,202.89697c2.17954,0.01318 3.81431,1.36816 3.32813,3.66504c-0.5562,2.62793 -1.23911,5.2207 -1.89126,7.82666l-3.83071,15.22852l-2.75098,11.07275c-0.43491,1.75195 -0.87158,3.66211 -1.39468,5.38623c-0.31465,1.03564 -1.28335,1.49414 -2.20781,1.88965c-1.65029,0.0835 -3.79028,-1.08691 -3.48735,-2.90039c0.67119,-4.01807 1.7877,-8.05957 2.79082,-12.01758l4.57236,-18.09814c0.51387,-1.96875 1.00283,-3.94482 1.46704,-5.92529c0.6438,-2.80078 0.45996,-5.06836 3.40444,-6.12744z" fill="#fefefe"/><path d="M77.71436,211.54688c1.72427,-0.02051 2.38638,0.88037 3.5146,2.01416c3.20361,3.21973 6.4188,6.47314 9.54946,9.76025c1.38955,1.45752 1.5019,3.25488 0.06885,4.70801c-2.76123,2.96924 -5.70483,5.79492 -8.54077,8.69678c-0.92505,0.94482 -1.9147,2.02002 -2.95986,2.80664c-1.98735,0.6167 -3.85459,-0.15234 -4.25977,-2.28955c-0.37646,-1.98633 2.33599,-4.15576 3.60952,-5.44336c1.99351,-2.03467 4.01294,-4.0415 6.05815,-6.02344c-1.99819,-2.14014 -4.17451,-4.15283 -6.1897,-6.27832c-1.57207,-1.6582 -3.04966,-2.58545 -3.61113,-4.88672c0.46831,-1.83252 0.88989,-2.53857 2.76064,-3.06445z" fill="#fefefe"/><path d="M49.5917,211.5542c0.94878,-0.02783 1.74097,0.24463 2.429,0.90381c0.57583,0.54492 0.90205,1.30225 0.90176,2.09473c-0.01523,1.89844 -2.34009,3.72803 -3.61948,5.0332c-2.0001,2.06396 -4.01206,4.11621 -6.03589,6.1582l0.12832,0.12158c2.47104,2.37598 4.83413,4.91016 7.2646,7.33008c0.63882,0.63574 1.38926,1.39307 1.85713,2.16211c0.27861,0.44824 0.41968,0.96826 0.40562,1.49561c-0.01641,0.7998 -0.34775,1.56152 -0.92227,2.11816c-0.83013,0.80273 -1.69497,0.83936 -2.77295,0.79248c-0.1437,-0.0498 -0.28462,-0.1084 -0.42187,-0.17432c-2.20488,-1.03711 -9.60454,-9.8877 -11.9064,-11.82275c-2.06572,-1.7373 0.35845,-4.90137 2.07114,-6.2666c2.30991,-1.84277 8.07363,-9.271 10.62129,-9.94629z" fill="#fefefe"/><path d="M103.55288,86.26802c-0.02578,2.47471 -0.02871,4.94956 -0.00879,7.42427c0.00937,4.53442 0.24492,8.12402 -2.92603,11.81543c-2.05063,2.38726 -5.17881,3.94014 -8.31387,3.99917c-3.98584,0.07515 -8.09517,0.0353 -12.09155,0.03354l-23.2979,-0.00615l-14.23198,0.00806c-0.81094,0.00103 -1.64766,0.02124 -2.45874,0.00264c-1.85405,-0.06563 -3.8918,0.13813 -5.72212,-0.18677c-5.53623,-0.98232 -9.55913,-5.82173 -9.59487,-11.42622c-0.02373,-3.7147 -0.01655,-7.36655 -0.01172,-11.05049l-0.0019,-20.14644l-0.00879,-11.3543c-0.00088,-1.95161 -0.09771,-5.29424 0.20508,-7.06523c0.39536,-2.28179 1.45474,-4.39629 3.0457,-6.0791c2.39941,-2.52949 5.53374,-3.69492 8.96763,-3.68716c3.99712,0.00908 8.00054,0.01216 11.99722,0.01157l25.60737,-0.00469l11.72563,-0.00425c5.28135,0.00015 9.50684,-0.61318 13.58628,3.39595c1.53896,1.52769 2.61899,3.45601 3.11748,5.56641c0.59766,2.47617 0.39668,7.05586 0.39463,9.76685l0.01597,12.62666l11.92046,-0.00615c7.4937,-0.00322 12.67925,-0.32739 19.55303,3.54155c12.89004,7.25464 14.59072,19.19019 18.24697,32.00933c-3.22266,1.80967 -6.15088,3.51885 -8.97334,5.93774c-0.59839,0.51284 -4.19854,3.92388 -4.48623,4.02275c-1.38589,-4.34326 -2.51572,-9.05815 -3.88843,-13.43774c-0.75176,-2.39883 -1.25815,-4.78755 -2.35488,-7.08765c-0.83379,-1.76675 -1.97021,-3.37412 -3.35786,-4.74917c-1.64795,-1.6481 -3.69858,-2.83608 -5.948,-3.44604c-2.44116,-0.63794 -6.8064,-0.44209 -9.42993,-0.44019z" fill="#c40019"/><g transform="translate(-0.8,-0.9)"><path d="M66.06255,50.02061c0.62476,0.99668 3.46362,14.80151 3.92285,16.95103c3.47886,-2.35693 8.23813,-5.15391 11.86333,-7.38223c-2.05767,3.53936 -4.95352,7.79209 -7.2126,11.27856c4.00488,1.12031 10.67886,2.38286 14.37422,3.70298c-4.31338,0.88022 -10.02583,2.61167 -14.51836,3.69727c2.33188,3.9561 5.02998,7.72295 7.34443,11.70762c-4.00356,-2.43457 -7.9103,-4.99863 -11.87769,-7.49033c-1.40215,5.48115 -2.51235,11.71143 -3.86704,17.36382c-0.15894,-0.70474 -0.32432,-1.40801 -0.49658,-2.10981l-3.39155,-15.25386c-3.65698,2.34697 -8.15083,5.34858 -11.92134,7.42793c2.42842,-3.8981 4.90371,-7.76675 7.42559,-11.60493c-5.11626,-1.28921 -11.41201,-2.60127 -16.62144,-3.74253c5.45186,-1.33096 10.97637,-2.39692 16.39146,-3.72979c-2.26187,-3.72656 -4.86943,-7.34854 -7.12837,-11.09692c3.11748,1.56416 8.68345,5.24106 11.85044,7.1981c1.09614,-5.05576 2.46694,-12.04248 3.86265,-16.91689z" fill="#fefefe"/></g><path d="M41.62427,47.84443c0.69243,1.54922 0.92358,3.23979 1.77407,4.84541c1.25288,0.73125 3.4834,1.3459 4.92642,1.79341c-1.40566,0.47051 -3.79731,1.18755 -4.95586,1.9314c-0.61919,1.21714 -1.29932,3.46875 -1.74946,4.85127c-0.67822,-1.61367 -0.99009,-3.26763 -1.80586,-4.92861c-1.31104,-0.69287 -3.55752,-1.3415 -5.02017,-1.79897c1.52446,-0.47622 3.68701,-1.08721 5.06162,-1.79868c0.65962,-1.28291 1.19487,-3.4084 1.76924,-4.89521z" fill="#fefefe"/><path d="M88.64956,87.82705c0.27729,0.23921 1.49619,4.05044 1.76133,4.7105c1.43789,0.74883 3.34409,1.31118 4.90781,1.82915c-1.57778,0.52148 -3.23789,1.02026 -4.73804,1.72148c-0.77021,1.33491 -1.36377,3.39932 -1.89536,4.91235c-0.65669,-1.64795 -0.96929,-3.26982 -1.80894,-4.90151c-1.19766,-0.58799 -3.51211,-1.30503 -4.84966,-1.75195c5.42285,-1.79824 4.86753,-0.83701 6.62285,-6.52002z" fill="#fefefe"/><path d="M103.54028,158.0376l0.0019,9.21973c0.00381,2.47852 0.1481,5.40088 -0.39946,7.771c-0.4374,1.89111 -1.5126,3.97412 -2.8771,5.3584c-2.45332,2.49023 -5.39575,3.62842 -8.86919,3.62842c-12.80801,-0.00439 -25.62656,-0.00732 -38.43281,-0.00732l-10.92876,0.00439c-2.08081,0.00732 -5.46943,0.1377 -7.37681,-0.19629c-2.39663,-0.40137 -4.61016,-1.53516 -6.33589,-3.24463c-2.63555,-2.61768 -3.40093,-5.63232 -3.43008,-9.21387v-30.31436l-0.00586,-8.82832c-0.00073,-2.13677 -0.06914,-4.30869 0.15894,-6.41338c0.41279,-3.80815 2.90303,-7.22183 6.3041,-8.93408c2.23081,-1.1231 3.97573,-1.26826 6.42437,-1.27295l38.49771,0.00234l10.74243,-0.00601c5.12314,-0.00132 9.18794,-0.46963 13.1083,3.55356c3.90806,4.0106 3.41733,8.42227 3.41836,13.57793l-0.00103,8.60771c5.87461,-0.00381 12.46333,-0.41265 18.05801,1.07827l0.60732,-0.80171c5.53652,1.31016 10.08677,4.18037 14.29175,7.94971l-0.52427,0.84521c5.58501,5.32764 7.96406,9.46875 12.31831,15.65771c-3.06621,3.84961 -5.01562,6.84229 -7.00488,11.40234c-0.60029,1.37549 -1.21934,3.16992 -1.79824,4.42969c-4.61147,-5.79639 -8.51147,-12.49072 -13.54263,-17.78174c-6.84507,-7.19824 -13.38311,-6.08789 -22.40449,-6.07178z" fill="#01a34f"/><path d="M122.20474,141.60645c5.53652,1.31016 10.08677,4.18037 14.29175,7.94971l-0.52427,0.84521c-3.78545,-3.3252 -9.34512,-6.92666 -14.3748,-7.99321z" fill="#007e43"/><path d="M42.75776,128.34082c2.22788,-0.04819 3.66694,1.93169 5.123,3.40825l5.08008,5.16694l5.96528,6.05786c2.02544,2.06704 5.72944,4.85376 3.21313,8.23169c-0.85269,1.14404 -2.29629,2.43457 -3.32373,3.46875l-5.58984,5.62646l-5.04155,5.06543c-0.90513,0.91113 -2.43545,2.55615 -3.44136,3.25049c-1.49473,0.54639 -2.67949,0.60938 -3.94292,-0.47168c-0.76201,-0.64307 -1.21699,-1.57764 -1.25317,-2.57373c-0.01597,-0.53027 0.18076,-1.60254 0.4998,-2.00684c1.26973,-1.60986 3.12144,-3.35889 4.57002,-4.82812l9.80156,-9.95068c-3.10884,-3.45615 -6.70752,-6.63823 -9.84185,-10.08032c-1.97021,-2.16387 -6.57715,-5.30024 -4.54131,-8.5667c0.67852,-1.08882 1.51919,-1.50952 2.72285,-1.7978z" fill="#fefefe"/><path d="M67.54717,162.32227c2.38008,-0.10547 16.73672,-0.27979 18.09478,0.17578c0.81606,0.27539 1.49502,0.92139 1.84805,1.70215c0.41001,0.89795 0.41396,1.9292 0.01099,2.83008c-0.47681,1.08984 -1.29741,1.50146 -2.33569,1.92041c-2.4646,0.2124 -16.29902,0.31934 -18.05552,-0.24756c-0.75,-0.24756 -1.36567,-0.79248 -1.70347,-1.50586c-1.07476,-2.22217 0.11924,-3.93164 2.14087,-4.875z" fill="#fefefe"/></g></svg></svg>